<?xml version="1.0" encoding="utf-8"?><svg viewBox="0 0 35 30" xmlns="http://www.w3.org/2000/svg" xmlns:xlink="http://www.w3.org/1999/xlink"><style>:root>svg{display:none}:root>svg:target{display:block}</style><svg fill="none" viewBox="0 0 35 30" id="flag" xmlns="http://www.w3.org/2000/svg"><path fill="#0057B8" d="M0 0h35v15H0z"/><path fill="gold" d="M0 15h35v15H0z"/></svg><svg fill="none" viewBox="0 0 24 16" id="shape" xmlns="http://www.w3.org/2000/svg"><path d="M18 15v-1a4 4 0 0 0-4-4h-4a4 4 0 0 0-4 4v1m17 0v-1a4 4 0 0 0-4-4h-.5M1 15v-1a4 4 0 0 1 4-4h.5M17 7a3 3 0 1 0 0-6M7 7a3 3 0 0 1 0-6m8 3a3 3 0 1 1-6 0 3 3 0 0 1 6 0Z" stroke="#fff" stroke-width="1.5" stroke-linecap="round" stroke-linejoin="round"/></svg></svg>