<svg width="30" height="30" viewBox="0 0 30 30" fill="none" xmlns="http://www.w3.org/2000/svg">
<path d="M15.0024 26.3013C11.9274 26.3013 11.5649 26.285 10.3649 26.2325C9.42915 26.2017 8.50548 26.0115 7.63369 25.67C6.12533 25.083 4.93262 23.8898 4.34619 22.3813C4.01782 21.5063 3.84071 20.5819 3.82244 19.6475C3.75244 18.45 3.75244 18.0575 3.75244 15.0063C3.75244 11.9225 3.76869 11.5625 3.82244 10.3688C3.84111 9.43566 4.01822 8.51252 4.34619 7.63876C4.93198 6.12817 6.12663 4.93397 7.63744 4.34876C8.51075 4.01901 9.43412 3.84144 10.3674 3.82376C11.5612 3.75626 11.9537 3.75626 15.0024 3.75626C18.1024 3.75626 18.4587 3.77251 19.6399 3.82376C20.5757 3.84159 21.5015 4.01914 22.3774 4.34876C23.8878 4.93463 25.0822 6.1286 25.6687 7.63876C26.0026 8.52525 26.1806 9.46282 26.1949 10.41C26.2649 11.6075 26.2649 11.9988 26.2649 15.0488C26.2649 18.0988 26.2474 18.4988 26.1949 19.6825C26.1763 20.6178 25.9988 21.543 25.6699 22.4188C25.082 23.9284 23.8875 25.122 22.3774 25.7088C21.5027 26.0365 20.5788 26.2136 19.6449 26.2325C18.4512 26.3013 18.0599 26.3013 15.0024 26.3013ZM14.9599 5.73501C11.9024 5.73501 11.5849 5.75001 10.3912 5.80376C9.67867 5.8132 8.97304 5.94468 8.30494 6.19251C7.31838 6.57002 6.53772 7.3475 6.15619 8.33251C5.90646 9.00788 5.77495 9.72123 5.76744 10.4413C5.70119 11.6525 5.70119 11.97 5.70119 15.0063C5.70119 18.0063 5.71244 18.37 5.76744 19.5738C5.77863 20.2865 5.91006 20.9923 6.15619 21.6613C6.53829 22.6456 7.31881 23.4225 8.30494 23.8C8.97258 24.0495 9.6785 24.181 10.3912 24.1888C11.6012 24.2588 11.9199 24.2588 14.9599 24.2588C18.0262 24.2588 18.3437 24.2438 19.5274 24.1888C20.2404 24.1801 20.9466 24.0486 21.6149 23.8C22.5955 23.4192 23.3711 22.6441 23.7524 21.6638C24.0017 20.9878 24.1332 20.2741 24.1412 19.5538H24.1549C24.2087 18.3588 24.2087 18.04 24.2087 14.9863C24.2087 11.9325 24.1949 11.6113 24.1412 10.4175C24.13 9.70557 23.9985 9.00064 23.7524 8.33251C23.372 7.35072 22.5963 6.57412 21.6149 6.19251C20.9468 5.94343 20.2405 5.81191 19.5274 5.80376C18.3187 5.73501 18.0024 5.73501 14.9599 5.73501ZM15.0024 20.78C12.6649 20.7815 10.5567 19.3747 9.66102 17.2156C8.76532 15.0565 9.25857 12.5704 10.9107 10.9168C12.5629 9.26324 15.0485 8.76784 17.2084 9.66167C19.3683 10.5555 20.7769 12.6625 20.7774 15C20.774 18.1888 18.1913 20.7738 15.0024 20.78ZM15.0024 11.2475C12.9314 11.2475 11.2524 12.9264 11.2524 14.9975C11.2524 17.0686 12.9314 18.7475 15.0024 18.7475C17.0735 18.7475 18.7524 17.0686 18.7524 14.9975C18.7476 12.9284 17.0715 11.2523 15.0024 11.2475ZM21.0024 10.3563C20.2592 10.3535 19.6586 9.74949 19.6599 9.00627C19.6613 8.26304 20.2642 7.66126 21.0074 7.66126C21.7507 7.66126 22.3536 8.26303 22.3549 9.00625C22.3553 9.36483 22.2128 9.70878 21.959 9.9621C21.7052 10.2154 21.361 10.3573 21.0024 10.3563Z" fill="white"/>
</svg>
