<svg width="51" height="74" viewBox="0 0 51 74" fill="none" xmlns="http://www.w3.org/2000/svg">
<path fill-rule="evenodd" clip-rule="evenodd" d="M8.80154 3.27831L10.4718 0L28.1833 41.726C29.3742 48.1555 33.8262 53.4964 40.5198 54.1369L40.5253 54.1411C42.9317 54.7327 45.6476 57.018 46.1732 60.9967C46.4695 62.6539 45.9433 65.2989 45.1348 66.7592C44.7046 67.2074 44.4117 67.8747 44.3704 68.6677C44.3704 69.874 45.184 70.784 46.0107 70.9723V71.0136H50.0169V74L49.9901 73.9714H48.2558L46.454 73.8909L44.6258 73.5815L42.9317 73.2187C40.1353 72.3851 38.8447 71.7935 36.5053 70.6106C36.2599 70.4584 36.0204 70.319 35.7849 70.1824C34.3563 69.3523 33.0852 68.614 31.6654 65.6358L31.3696 64.6814L31.1468 63.5928L31.041 61.4455L30.9394 60.043L30.8595 58.7086L30.8269 58.7475C30.3914 51.5398 26.3744 48.0361 20.3237 42.7592C19.7177 42.2305 19.0912 41.6843 18.4459 41.1144L8.80154 3.27831ZM42.9933 62.3397C42.9933 64.996 41.0642 67.1499 38.685 67.1499C36.3053 67.1499 34.3766 64.996 34.3766 62.3397C34.3766 59.683 36.3053 57.5291 38.685 57.5291C41.0642 57.5291 42.9933 59.683 42.9933 62.3397ZM24.2709 39.263C24.2709 40.1366 23.6277 40.8449 22.8342 40.8449C22.0406 40.8449 21.3974 40.1366 21.3974 39.263C21.3974 38.3892 22.0406 37.6809 22.8342 37.6809C23.6277 37.6809 24.2709 38.3892 24.2709 39.263ZM37.4566 3.27243L36.2103 0.103776L23.9236 27.6704L28.4853 38.4687L37.4566 3.27243ZM5.73693 54.1366C12.0087 53.5364 16.3124 48.8098 17.8097 42.9271L21.7269 46.5403C18.0667 50.0633 15.7543 53.377 15.4299 58.7472L15.3974 58.7083L15.3174 60.0426L15.2159 61.4452L15.11 63.5921L14.8872 64.6811L14.5914 65.6355C14.1795 66.4997 13.7801 67.175 13.3857 67.7191C11.3675 70.1187 8.60715 71.3368 5.18005 70.2206C3.45814 69.6599 2.29624 68.4674 1.53399 67.3354C1.46206 67.1987 1.3807 67.0717 1.29132 66.9558C1.05621 66.5686 0.867408 66.1982 0.718311 65.8737C0.151496 64.3837 -0.159722 62.3569 0.0834867 60.9964C0.609287 57.0177 3.32505 54.7324 5.73159 54.1407L5.73693 54.1366ZM3.26355 62.339C3.26355 64.9957 5.19251 67.1492 7.572 67.1492C9.95143 67.1492 11.8804 64.9957 11.8804 62.339C11.8804 59.6823 9.95143 57.5288 7.572 57.5288C5.19251 57.5288 3.26355 59.6823 3.26355 62.339Z" fill="black"/>
</svg>
