<svg width="16" height="22" viewBox="0 0 16 22" fill="none" xmlns="http://www.w3.org/2000/svg">
<path fill-rule="evenodd" clip-rule="evenodd" d="M3.29108 1.45202L3.77638 0.499512L8.92245 12.623C9.26846 14.4911 10.562 16.0429 12.5068 16.229L12.5084 16.2302C13.2076 16.4021 13.9967 17.0661 14.1494 18.2221C14.2355 18.7036 14.0826 19.4721 13.8477 19.8964C13.7227 20.0266 13.6376 20.2205 13.6256 20.4509C13.6256 20.8014 13.862 21.0658 14.1022 21.1205V21.1325H15.2662V22.0002L15.2584 21.9919H14.7545L14.231 21.9685L13.6998 21.8786L13.2076 21.7732C12.3951 21.531 12.0201 21.3591 11.3404 21.0154C11.2691 20.9712 11.1995 20.9307 11.1311 20.891C10.716 20.6498 10.3467 20.4353 9.93416 19.57L9.84822 19.2927L9.78348 18.9764L9.75273 18.3525L9.72322 17.945L9.70001 17.5573L9.69054 17.5686C9.56401 15.4744 8.39687 14.4564 6.63885 12.9232C6.46277 12.7696 6.28075 12.6109 6.09323 12.4453L3.29108 1.45202ZM13.2255 18.6123C13.2255 19.3841 12.665 20.0099 11.9737 20.0099C11.2823 20.0099 10.7219 19.3841 10.7219 18.6123C10.7219 17.8404 11.2823 17.2146 11.9737 17.2146C12.665 17.2146 13.2255 17.8404 13.2255 18.6123ZM7.7857 11.9074C7.7857 12.1612 7.5988 12.367 7.36825 12.367C7.13769 12.367 6.95079 12.1612 6.95079 11.9074C6.95079 11.6535 7.13769 11.4477 7.36825 11.4477C7.5988 11.4477 7.7857 11.6535 7.7857 11.9074ZM11.6168 1.45031L11.2547 0.529664L7.68478 8.53912L9.01018 11.6766L11.6168 1.45031ZM2.40066 16.2289C4.22293 16.0545 5.47337 14.6812 5.90839 12.972L7.04654 14.0218C5.98306 15.0454 5.3112 16.0082 5.21695 17.5685L5.20749 17.5572L5.18426 17.9449L5.15477 18.3524L5.12401 18.9762L5.05926 19.2926L4.97333 19.5699C4.85364 19.821 4.73759 20.0172 4.623 20.1753C4.03661 20.8725 3.2346 21.2264 2.23886 20.9021C1.73856 20.7392 1.40097 20.3927 1.1795 20.0638C1.1586 20.0241 1.13496 19.9872 1.10899 19.9535C1.04068 19.841 0.985828 19.7334 0.942508 19.6391C0.77782 19.2062 0.687396 18.6173 0.75806 18.222C0.910831 17.066 1.69989 16.402 2.39911 16.2301L2.40066 16.2289ZM1.68202 18.6121C1.68202 19.384 2.24248 20.0097 2.93384 20.0097C3.62518 20.0097 4.18564 19.384 4.18564 18.6121C4.18564 17.8402 3.62518 17.2145 2.93384 17.2145C2.24248 17.2145 1.68202 17.8402 1.68202 18.6121Z" fill="white"/>
</svg>
