<svg width="242" height="238" viewBox="0 0 242 238" fill="none" xmlns="http://www.w3.org/2000/svg">
<path d="M130.905 85.4871H163.405L159.905 93.4871H132.405L137.905 114.487H142.405C171.79 114.487 173.035 147.468 148.905 151.487C148.426 151.567 148.405 151.487 148.405 151.487L152.905 168.487H148.405L136.905 125.987H140.905L145.905 143.487H146.905C160.906 143.487 162.319 122.487 144.905 122.487H109.905L103.905 143.487H137.405L139.905 151.487H82.4051L85.9052 143.487H99.9051L111.905 96.9871H116.405L111.905 114.487H133.905L122.905 74.4871L119.905 85.4871H122.405L124.905 93.4871H98.9051C82.9494 93.4871 83.0083 114.487 98.9051 114.487H102.905L100.905 122.487H97.9051C72.5278 122.487 72.41 85.4871 98.9051 85.4871H115.405C115.405 85.4871 119.718 68.8335 120.405 66.9871C121.092 65.1407 124.734 64.919 125.405 66.9871C126.076 69.0552 130.905 85.4871 130.905 85.4871Z" fill="#17C7E6"/>
<path d="M96.4201 154.598H100.542L97.0383 168.589H92.9095L96.4201 154.598Z" fill="#17C7E6"/>
<path d="M34.5301 157.853C36.419 162.095 37.1817 167.194 36.4107 170.374L31.5992 169.857C32.3156 167.085 31.7974 162.734 30.2929 159.355C29.1837 156.864 27.8889 155.549 26.9762 155.955C26.2116 156.296 26.2481 157.639 27.1491 160.459L28.2288 163.88C30.1187 169.718 29.63 172.802 26.4975 174.197C22.6989 175.888 18.6422 172.552 15.8418 166.262C14.1835 162.538 13.5121 158.64 13.9516 155.843L18.4531 155.996C18.0271 158.491 18.509 161.764 19.7417 164.467C20.8865 166.972 22.3021 168.558 23.2504 168.165C23.9164 167.869 23.8964 166.695 23.1081 164.327L21.9928 160.893C19.9518 154.649 20.4376 151.359 23.6442 149.932C27.2837 148.282 31.6419 151.366 34.5301 157.853Z" fill="white"/>
<path d="M29.2106 146.132L10.1166 149.156L9.01423 142.196L15.7878 141.123L14.1194 130.589L7.34586 131.662L6.24347 124.702L25.3375 121.678L26.4399 128.638L18.8396 129.842L20.508 140.376L28.1082 139.172L29.2106 146.132Z" fill="white"/>
<path d="M26.8197 107.679C25.7865 116.094 20.9952 121.218 14.8315 120.462C8.66782 119.705 5.25861 113.574 6.29182 105.159C7.32832 96.7172 12.1195 91.5929 18.2832 92.3498C24.4469 93.1066 27.8562 99.2377 26.8197 107.679ZM21.8887 107.074C22.4053 102.866 20.6135 99.7358 17.4244 99.3442C14.2354 98.9527 11.7394 101.557 11.2228 105.764C10.7062 109.972 12.5013 113.076 15.6903 113.467C18.8794 113.859 21.3721 111.281 21.8887 107.074Z" fill="white"/>
<path d="M28.74 92.7485L10.9448 85.1948L17.032 70.8543C19.1736 65.809 22.6026 63.95 26.6289 65.6591C30.5452 67.3508 31.5153 71.0771 29.3632 76.1472L26.0506 83.9513L31.4935 86.2617L28.74 92.7485ZM22.3971 82.4004L24.813 76.709C25.773 74.4473 25.4058 72.8248 23.7654 72.1285C22.1499 71.4428 20.7277 72.3057 19.7677 74.5674L17.3518 80.2589L22.3971 82.4004Z" fill="white"/>
<path d="M207.714 82.315C205.826 78.0725 205.063 72.9739 205.834 69.7934L210.645 70.3111C209.929 73.0831 210.447 77.4335 211.952 80.8127C213.061 83.3039 214.356 84.6189 215.268 84.2126C216.033 83.8722 215.996 82.5289 215.095 79.7085L214.016 76.2879C212.126 70.4499 212.615 67.3655 215.747 65.9708C219.546 64.2796 223.602 67.616 226.403 73.9058C228.061 77.6303 228.733 81.5282 228.293 84.3247L223.791 84.1714C224.217 81.6764 223.736 78.4035 222.503 75.7012C221.358 73.1963 219.942 71.6099 218.994 72.0026C218.328 72.2991 218.348 73.4724 219.137 75.8405L220.252 79.2748C222.293 85.5184 221.807 88.8085 218.6 90.2361C214.961 91.8861 210.603 88.8021 207.714 82.315Z" fill="white"/>
<path d="M213.034 94.0357L232.128 91.0116L233.23 97.9718L226.457 99.0446L228.125 109.578L234.899 108.505L236.001 115.466L216.907 118.49L215.805 111.53L223.405 110.326L221.737 99.7922L214.136 100.996L213.034 94.0357Z" fill="white"/>
<path d="M215.425 132.489C216.458 124.074 221.249 118.949 227.413 119.706C233.577 120.463 236.986 126.594 235.953 135.009C234.916 143.451 230.125 148.575 223.961 147.818C217.798 147.061 214.388 140.93 215.425 132.489ZM220.356 133.094C219.839 137.301 221.631 140.432 224.82 140.824C228.009 141.215 230.505 138.611 231.022 134.404C231.538 130.196 229.743 127.092 226.554 126.701C223.365 126.309 220.873 128.887 220.356 133.094Z" fill="white"/>
<path d="M213.505 147.419L231.3 154.973L225.213 169.313C223.071 174.359 219.642 176.218 215.616 174.509C211.699 172.817 210.729 169.091 212.881 164.021L216.194 156.217L210.751 153.906L213.505 147.419ZM219.848 157.767L217.432 163.459C216.472 165.72 216.839 167.343 218.479 168.039C220.095 168.725 221.517 167.862 222.477 165.6L224.893 159.909L219.848 157.767Z" fill="white"/>
<path d="M62.4792 43.1885L58.6249 24.6762L60.7215 23.3146L76.0238 34.3926L74.1787 35.5908L70.5357 32.9189L63.407 37.5483L64.3453 41.9767L62.4792 43.1885ZM62.9026 35.67L69.004 31.7077L60.8107 25.7011L60.7687 25.7283L62.9026 35.67Z" fill="white"/>
<path d="M86.9961 31.3944C81.643 33.4241 76.9505 31.273 74.9119 25.8965C72.8645 20.4966 74.7407 15.8549 79.79 13.9404C83.3665 12.5843 86.9991 13.7737 89.0855 17.0198L87.4072 18.1642C85.8705 15.5919 83.1575 14.6421 80.4459 15.6702C76.5888 17.1327 75.2036 20.8129 76.8522 25.1608C78.5153 29.4765 82.2026 31.2333 86.3402 29.6645C89.6362 28.4148 91.2462 25.398 90.4874 21.9159L92.5348 21.6743C93.4458 25.9811 91.2973 29.7635 86.9961 31.3944Z" fill="white"/>
<path d="M95.6693 27.1182L99.3554 8.57159L101.817 8.13756L111.574 24.3143L109.407 24.6963L107.098 20.8132L98.7274 22.2889L97.8606 26.7319L95.6693 27.1182ZM98.9971 20.3629L106.162 19.0998L100.967 10.3691L100.918 10.3778L98.9971 20.3629Z" fill="white"/>
<path d="M114.534 23.9364L114.652 6.31176L121.052 6.35472C127.002 6.39465 130.281 9.56673 130.242 15.2416C130.205 20.8915 126.883 24.0193 120.934 23.9793L114.534 23.9364ZM116.621 22.1003L120.946 22.1294C125.546 22.1602 128.137 19.7026 128.168 15.2277C128.198 10.7278 125.639 8.23555 121.04 8.20467L116.715 8.17565L116.621 22.1003Z" fill="white"/>
<path d="M133.363 25.1023L136.482 7.75536L148.342 9.8872L148.014 11.708L138.147 9.93443L137.126 15.6183L146.008 17.215L145.69 18.9866L136.807 17.3899L135.684 23.6398L145.797 25.4576L145.469 27.2784L133.363 25.1023Z" fill="white"/>
<path d="M148.861 27.5124L155.464 11.1708L158.245 12.2946L158.475 28.9431L158.499 28.9524L170.206 17.127L172.988 18.2508L166.385 34.5924L164.461 33.8151L169.94 20.2551L169.894 20.2363L158.643 31.4645L156.603 30.6403L156.301 14.7715L156.255 14.7528L150.785 28.2897L148.861 27.5124Z" fill="white"/>
<path d="M174.285 39.5773L177.948 34.1471L178.876 21.4146L180.783 22.7007L179.936 33.0761L179.957 33.0901L189.156 28.3486L191.105 29.6627L179.668 35.3074L176.005 40.7376L174.285 39.5773Z" fill="white"/>
<path d="M182.203 194.862L186.057 213.375L183.961 214.736L168.658 203.658L170.503 202.46L174.146 205.132L181.275 200.502L180.337 196.074L182.203 194.862ZM181.779 202.381L175.678 206.343L183.871 212.35L183.913 212.322L181.779 202.381Z" fill="white"/>
<path d="M157.686 206.657C163.039 204.627 167.732 206.778 169.77 212.154C171.818 217.554 169.941 222.196 164.892 224.11C161.316 225.467 157.683 224.277 155.597 221.031L157.275 219.887C158.812 222.459 161.525 223.409 164.236 222.381C168.093 220.918 169.479 217.238 167.83 212.89C166.167 208.574 162.479 206.818 158.342 208.386C155.046 209.636 153.436 212.653 154.195 216.135L152.147 216.377C151.236 212.07 153.385 208.287 157.686 206.657Z" fill="white"/>
<path d="M149.013 210.933L145.327 229.479L142.865 229.913L133.108 213.737L135.275 213.355L137.584 217.238L145.955 215.762L146.822 211.319L149.013 210.933ZM145.685 217.688L138.52 218.951L143.715 227.682L143.764 227.673L145.685 217.688Z" fill="white"/>
<path d="M130.148 214.114L130.03 231.739L123.63 231.696C117.68 231.656 114.401 228.484 114.44 222.809C114.478 217.159 117.799 214.032 123.748 214.072L130.148 214.114ZM128.061 215.951L123.736 215.921C119.136 215.891 116.545 218.348 116.515 222.823C116.484 227.323 119.043 229.815 123.643 229.846L127.967 229.875L128.061 215.951Z" fill="white"/>
<path d="M111.319 212.949L108.2 230.295L96.3406 228.164L96.6678 226.343L106.535 228.116L107.556 222.433L98.6738 220.836L98.9922 219.064L107.875 220.661L108.998 214.411L98.8854 212.593L99.2126 210.772L111.319 212.949Z" fill="white"/>
<path d="M95.8207 210.538L89.2183 226.88L86.4367 225.756L86.2066 209.108L86.1834 209.098L74.476 220.924L71.6945 219.8L78.2969 203.458L80.2208 204.236L74.7422 217.796L74.7886 217.814L86.0389 206.586L88.0787 207.41L88.3812 223.279L88.4275 223.298L93.8968 209.761L95.8207 210.538Z" fill="white"/>
<path d="M70.3972 198.474L66.7345 203.904L65.8058 216.636L63.8991 215.35L64.7456 204.975L64.7249 204.961L55.5258 209.702L53.5775 208.388L65.0143 202.744L68.677 197.313L70.3972 198.474Z" fill="white"/>
<circle cx="42" cy="48" r="3" fill="white"/>
<circle cx="42" cy="188" r="3" fill="white"/>
<circle cx="200" cy="48" r="3" fill="white"/>
<circle cx="200" cy="188" r="3" fill="white"/>
</svg>
