<svg width="312" height="104" viewBox="0 0 312 104" fill="none" xmlns="http://www.w3.org/2000/svg">
<path d="M127.544 58.092C118.6 58.092 109.032 55.44 104.04 51.592L108.72 43.532C113.036 46.964 121.096 49.46 128.22 49.46C133.472 49.46 136.8 48.212 136.8 46.288C136.8 44.676 134.408 43.688 128.74 43.064L121.876 42.284C110.124 41.036 105.08 37.76 105.08 31.156C105.08 23.148 114.128 18.624 127.388 18.624C135.24 18.624 142.624 20.496 147.2 23.46L143.404 31.26C139.348 28.556 133.212 26.84 127.492 26.892C122.188 26.944 118.288 28.192 118.236 30.168C118.236 31.572 120.316 32.456 125.1 32.924L132.016 33.652C144.6 34.952 150.008 38.384 150.008 45.144C150.06 52.84 141.22 58.092 127.544 58.092ZM153.639 57V19.768H167.211V32.976H187.751V19.768H201.323V57H187.751V42.18H167.211V57H153.639ZM232.866 58.3C216.538 58.3 205.618 50.344 205.618 38.384C205.618 26.424 216.538 18.468 232.866 18.468C249.246 18.468 260.166 26.424 260.166 38.384C260.166 50.344 249.246 58.3 232.866 58.3ZM232.866 48.732C241.03 48.732 246.594 44.572 246.594 38.384C246.594 32.196 241.03 28.036 232.866 28.036C224.702 28.036 219.19 32.196 219.19 38.384C219.19 44.572 224.702 48.732 232.866 48.732ZM264.444 57V19.768H294.448C305.004 19.768 310.88 24.448 310.88 32.872C310.828 41.088 304.952 45.612 294.344 45.612H278.016V57H264.444ZM278.016 37.968H289.924C294.656 37.968 297.256 36.096 297.256 32.664C297.256 29.284 294.656 27.412 289.924 27.412H278.016V37.968Z" fill="white"/>
<path d="M104.31 86L112.804 64.145H115.904L124.336 86H121.608L119.624 80.761H109.084L107.069 86H104.31ZM109.828 78.467H118.849L114.385 66.687H114.323L109.828 78.467ZM135.782 86.775C128.683 86.775 124.188 82.218 124.188 75.088C124.188 67.927 128.404 63.37 135.1 63.37C139.843 63.37 143.532 66.346 144.524 71.027L142.075 71.616C141.424 67.958 138.696 65.664 135.1 65.664C129.985 65.664 126.761 69.322 126.761 75.088C126.792 80.823 130.295 84.481 135.782 84.481C140.153 84.481 143.346 81.691 143.997 77.32L146.477 77.94C145.64 83.334 141.486 86.775 135.782 86.775ZM145.875 86L154.369 64.145H157.469L165.901 86H163.173L161.189 80.761H150.649L148.634 86H145.875ZM151.393 78.467H160.414L155.95 66.687H155.888L151.393 78.467ZM168.072 86V64.145H176.008C183.386 64.145 187.478 68.051 187.478 75.088C187.478 82.094 183.386 86 176.008 86H168.072ZM170.645 83.706H176.008C181.712 83.706 184.905 80.637 184.905 75.088C184.905 69.508 181.712 66.439 176.008 66.439H170.645V83.706ZM190.414 86V64.145H205.356V66.439H192.925V73.6H204.116V75.832H192.925V83.706H205.666V86H190.414ZM208.305 86V64.145H212.025L220.023 83.179H220.054L228.021 64.145H231.741V86H229.168V67.865H229.106L221.387 86H218.659L210.94 67.896H210.878V86H208.305ZM241.785 86V77.878L233.911 64.145H236.763L243.087 75.398H243.118L249.287 64.145H252.201L244.358 77.878V86H241.785Z" fill="white"/>
<path d="M52.0001 20H84.5L81 28H53.5001L59.0001 49H63.5C92.8849 49 94.1298 81.981 70 86C69.5211 86.0798 69.5 86 69.5 86L74 103H69.5L58.0001 60.5H62.0001L67 78H68C82.0006 78 83.4137 57 66 57H31L25 78H58.5001L61.0001 86H3.50011L7.00015 78H21L33.0001 31.5H37.5001L33.0001 49H55.0001L44.0001 8.99999L41.0001 20H43.5001L46.0001 28H20C4.04438 28 4.10326 49 20 49H24L22 57H19C-6.37725 57 -6.495 20 20 20H36.5001C36.5001 20 40.8129 3.34639 41.5001 1.49999C42.1872 -0.346404 45.8288 -0.5681 46.5001 1.49999C47.1714 3.56808 52.0001 20 52.0001 20Z" fill="#17C7E6"/>
<path d="M17.5151 89.1114H21.6367L18.1333 103.102H14.0045L17.5151 89.1114Z" fill="#17C7E6"/>
</svg>
